<svg xmlns="http://www.w3.org/2000/svg" width="44" height="44" fill="none" viewBox="0 0 44 44"><path stroke="#FF6D00" stroke-linecap="round" stroke-linejoin="round" stroke-width="2.75" d="M22 38.5c9.113 0 16.5-7.387 16.5-16.5S31.113 5.5 22 5.5 5.5 12.887 5.5 22 12.887 38.5 22 38.5zM22 31.167v.018"/><path stroke="#FF6D00" stroke-linecap="round" stroke-linejoin="round" stroke-width="2.75" d="M21.999 24.75c-.034-.595.127-1.185.457-1.681s.814-.871 1.376-1.07c.69-.263 1.308-.682 1.807-1.226.5-.543.866-1.195 1.07-1.903.205-.71.242-1.456.109-2.181-.133-.726-.433-1.411-.875-2.001-.443-.59-1.017-1.07-1.676-1.4-.66-.332-1.387-.505-2.124-.507-.738-.002-1.466.167-2.128.494-.66.328-1.237.804-1.683 1.392"/></svg>